<svg width="16" height="16" viewBox="0 0 16 16" fill="none" xmlns="http://www.w3.org/2000/svg">
<g clip-path="url(#clip0_125_19)">
<path d="M15.3201 2.405H4.88711C3.00011 2.405 2.46011 0.805 2.46011 0.805L2.25711 0.21C2.20811 0.085 2.08311 0 1.94611 0H0.336109C0.100109 0 -0.0638915 0.24 0.0241085 0.46L0.668108 2.405L3.11011 9.767C3.15711 9.904 3.28511 9.997 3.43011 9.997H11.8481L11.3551 11.955H3.76811L3.77011 11.958C3.75311 11.958 3.73711 11.955 3.72011 11.955C2.66011 11.955 1.80011 12.815 1.80011 13.875C1.80011 14.935 2.66011 15.795 3.72011 15.795C4.71011 15.795 5.52511 15.045 5.63011 14.083L11.1801 14.159C11.3001 15.081 12.0901 15.795 13.0471 15.795C14.0871 15.795 14.9321 14.951 14.9321 13.91C14.9321 13.044 14.3481 12.317 13.5521 12.096L15.9751 3.264C16.0951 2.831 15.7691 2.405 15.3201 2.405Z" fill="white"/>
</g>
<defs>
<clipPath id="clip0_125_19">
<rect width="16" height="16" fill="white"/>
</clipPath>
</defs>
</svg>
