<svg width="18" height="18" viewBox="0 0 18 18" fill="none" xmlns="http://www.w3.org/2000/svg">
<path fill-rule="evenodd" clip-rule="evenodd" d="M12.9089 10.9233L17.6033 15.6033C17.7056 15.7056 17.7156 15.8611 17.6256 15.9511L15.9978 17.5733C15.9078 17.6633 15.7522 17.6533 15.6489 17.5511L10.9644 12.8811" fill="#2874F0"/>
<path fill-rule="evenodd" clip-rule="evenodd" d="M7.20667 12.0389C4.51778 12.0389 2.33889 9.86556 2.33889 7.18556C2.33889 4.50444 4.51778 2.33111 7.20667 2.33111C9.89556 2.33111 12.0744 4.50444 12.0744 7.18556C12.0744 9.86667 9.89556 12.0389 7.20667 12.0389ZM7.20667 0C3.22667 0 0 3.21667 0 7.18556C0 11.1544 3.22667 14.3711 7.20667 14.3711C11.1867 14.3711 14.4133 11.1544 14.4133 7.18556C14.4133 3.21667 11.1867 0 7.20667 0Z" fill="#2874F0"/>
</svg>
