<svg width="150" height="25" viewBox="0 0 150 25" fill="none" xmlns="http://www.w3.org/2000/svg">
<path d="M8.38558 7.30512L11.6943 0.641806C11.7906 0.448968 11.9388 0.286773 12.1221 0.173411C12.3054 0.0600481 12.5167 0 12.7323 0C12.9478 0 13.1591 0.0600481 13.3424 0.173411C13.5258 0.286773 13.6739 0.448968 13.7702 0.641806L17.079 7.30512L24.4759 8.38002C24.6892 8.4096 24.89 8.49857 25.0552 8.63678C25.2204 8.77499 25.3434 8.95686 25.4102 9.16164C25.477 9.36642 25.4849 9.58585 25.4329 9.79489C25.381 10.0039 25.2713 10.1942 25.1165 10.3439L19.7649 15.5273L21.0283 22.8503C21.19 23.7902 20.1967 24.506 19.3472 24.0628L12.7323 20.6037L6.11607 24.0628C5.26788 24.5072 4.27449 23.7902 4.43624 22.849L5.69962 15.526L0.348077 10.3426C0.193958 10.1928 0.0849553 10.0027 0.0334597 9.79408C-0.0180358 9.58541 -0.00995879 9.36648 0.0567725 9.16217C0.123504 8.95787 0.246213 8.77638 0.410952 8.63834C0.575691 8.5003 0.775851 8.41124 0.988683 8.38129L8.38558 7.30512Z" fill="#008C00"/>
<path d="M39.4704 7.55839L42.7791 0.895076C42.8754 0.702238 43.0236 0.540044 43.2069 0.426681C43.3902 0.313319 43.6015 0.253271 43.8171 0.253271C44.0326 0.253271 44.2439 0.313319 44.4273 0.426681C44.6106 0.540044 44.7587 0.702238 44.855 0.895076L48.1638 7.55839L55.5607 8.63329C55.774 8.66287 55.9748 8.75184 56.14 8.89005C56.3052 9.02826 56.4282 9.21013 56.495 9.41491C56.5618 9.61969 56.5697 9.83912 56.5178 10.0482C56.4658 10.2572 56.3562 10.4474 56.2013 10.5971L50.8497 15.7806L52.1131 23.1036C52.2749 24.0435 51.2815 24.7592 50.432 24.316L43.8171 20.857L37.2009 24.316C36.3527 24.7605 35.3593 24.0435 35.5211 23.1023L36.7844 15.7793L31.4329 10.5959C31.2788 10.4461 31.1698 10.256 31.1183 10.0473C31.0668 9.83868 31.0749 9.61975 31.1416 9.41544C31.2083 9.21114 31.331 9.02965 31.4958 8.89161C31.6605 8.75357 31.8607 8.66451 32.0735 8.63456L39.4704 7.55839Z" fill="#008C00"/>
<path d="M70.6522 7.55839L73.961 0.895076C74.0573 0.702238 74.2054 0.540044 74.3887 0.426681C74.5721 0.313319 74.7834 0.253271 74.9989 0.253271C75.2145 0.253271 75.4257 0.313319 75.6091 0.426681C75.7924 0.540044 75.9406 0.702238 76.0369 0.895076L79.3456 7.55839L86.7425 8.63329C86.9558 8.66287 87.1566 8.75184 87.3218 8.89005C87.487 9.02826 87.61 9.21013 87.6768 9.41491C87.7436 9.61969 87.7515 9.83912 87.6996 10.0482C87.6476 10.2572 87.538 10.4474 87.3831 10.5971L82.0316 15.7806L83.2949 23.1036C83.4567 24.0435 82.4633 24.7592 81.6138 24.316L74.9989 20.857L68.3827 24.316C67.5345 24.7605 66.5411 24.0435 66.7029 23.1023L67.9663 15.7793L62.6147 10.5959C62.4606 10.4461 62.3516 10.256 62.3001 10.0473C62.2486 9.83868 62.2567 9.61975 62.3234 9.41544C62.3901 9.21114 62.5129 9.02965 62.6776 8.89161C62.8423 8.75357 63.0425 8.66451 63.2553 8.63456L70.6522 7.55839Z" fill="#008C00"/>
<path d="M101.834 7.55839L105.143 0.895076C105.239 0.702238 105.387 0.540044 105.571 0.426681C105.754 0.313319 105.965 0.253271 106.181 0.253271C106.396 0.253271 106.608 0.313319 106.791 0.426681C106.974 0.540044 107.122 0.702238 107.219 0.895076L110.527 7.55839L117.924 8.63329C118.138 8.66287 118.338 8.75184 118.504 8.89005C118.669 9.02826 118.792 9.21013 118.859 9.41491C118.925 9.61969 118.933 9.83912 118.881 10.0482C118.829 10.2572 118.72 10.4474 118.565 10.5971L113.213 15.7806L114.477 23.1036C114.639 24.0435 113.645 24.7592 112.796 24.316L106.181 20.857L99.5645 24.316C98.7163 24.7605 97.7229 24.0435 97.8847 23.1023L99.1481 15.7793L93.7965 10.5959C93.6424 10.4461 93.5334 10.256 93.4819 10.0473C93.4304 9.83868 93.4385 9.61975 93.5052 9.41544C93.572 9.21114 93.6947 9.02965 93.8594 8.89161C94.0241 8.75357 94.2243 8.66451 94.4371 8.63456L101.834 7.55839Z" fill="#008C00"/>
<path d="M132.919 7.81179L136.227 1.14847C136.324 0.955631 136.472 0.793436 136.655 0.680074C136.839 0.566711 137.05 0.506663 137.265 0.506663C137.481 0.506663 137.692 0.566711 137.876 0.680074C138.059 0.793436 138.207 0.955631 138.303 1.14847L141.612 7.81179L149.009 8.88668C149.222 8.91626 149.423 9.00524 149.588 9.14344C149.754 9.28165 149.877 9.46352 149.943 9.6683C150.01 9.87308 150.018 10.0925 149.966 10.3016C149.914 10.5106 149.805 10.7008 149.65 10.8505L144.298 16.034L145.561 23.357C145.723 24.2969 144.73 25.0126 143.88 24.5694L137.265 21.1104L130.649 24.5694C129.801 25.0139 128.808 24.2969 128.969 23.3557L130.233 16.0327L124.881 10.8493C124.727 10.6994 124.618 10.5094 124.567 10.3007C124.515 10.0921 124.523 9.87314 124.59 9.66884C124.657 9.46453 124.779 9.28304 124.944 9.145C125.109 9.00696 125.309 8.9179 125.522 8.88795L132.919 7.81179Z" fill="#008C00"/>
</svg>
