<svg width="34" height="29" viewBox="0 0 34 29" fill="none" xmlns="http://www.w3.org/2000/svg">
<path fill-rule="evenodd" clip-rule="evenodd" d="M34 14.8758C34 15.2156 33.865 15.5415 33.6247 15.7817C33.3845 16.022 33.0586 16.157 32.7188 16.157H4.37648L14 25.9686C14.2406 26.2092 14.3757 26.5355 14.3757 26.8757C14.3757 27.216 14.2406 27.5423 14 27.7829C13.7594 28.0235 13.4331 28.1586 13.0929 28.1586C12.7526 28.1586 12.4263 28.0235 12.1857 27.7829L0.376415 15.7829C0.257097 15.6639 0.162431 15.5225 0.0978394 15.3668C0.0332479 15.2112 0 15.0443 0 14.8758C0 14.7072 0.0332479 14.5404 0.0978394 14.3847C0.162431 14.229 0.257097 14.0876 0.376415 13.9686L13.1908 1.00001C13.3099 0.880886 13.4513 0.78639 13.607 0.72192C13.7626 0.65745 13.9295 0.624268 14.0979 0.624268C14.4382 0.624268 14.7645 0.759426 15.005 1.00001C15.2456 1.2406 15.3808 1.5669 15.3808 1.90714C15.3808 2.24737 15.2456 2.57368 15.005 2.81426L4.37648 13.5945L32.7188 13.5945C33.0586 13.5945 33.3845 13.7295 33.6247 13.9698C33.865 14.2101 34 14.5359 34 14.8758Z" fill="black"/>
</svg>
