<svg width="25" height="28" viewBox="0 0 25 28" fill="none" xmlns="http://www.w3.org/2000/svg">
<path d="M12.9401 21.7524V20.3257C12.9401 19.2777 13.1602 18.3134 13.6006 17.4327C14.0497 16.552 14.7014 15.843 15.5557 15.3058C16.4099 14.7686 17.4448 14.5 18.6601 14.5C19.9107 14.5 20.9587 14.7686 21.8041 15.3058C22.6496 15.8342 23.2881 16.5388 23.7196 17.4195C24.1599 18.3001 24.3801 19.2689 24.3801 20.3257V21.7524C24.3801 22.8004 24.1599 23.7648 23.7196 24.6455C23.2793 25.5261 22.632 26.2351 21.7777 26.7723C20.9323 27.3095 19.893 27.5781 18.6601 27.5781C17.4271 27.5781 16.3835 27.3095 15.5293 26.7723C14.675 26.2351 14.0277 25.5261 13.5874 24.6455C13.1558 23.7648 12.9401 22.8004 12.9401 21.7524ZM16.3879 20.3257V21.7524C16.3879 22.4482 16.5553 23.0866 16.8899 23.6679C17.2246 24.2491 17.8146 24.5398 18.6601 24.5398C19.5144 24.5398 20.1 24.2536 20.4171 23.6811C20.7429 23.0999 20.9058 22.457 20.9058 21.7524V20.3257C20.9058 19.6212 20.7517 18.9783 20.4435 18.397C20.1352 17.807 19.5408 17.5119 18.6601 17.5119C17.8323 17.5119 17.2466 17.807 16.9031 18.397C16.5597 18.9783 16.3879 19.6212 16.3879 20.3257ZM0 7.25242V5.82571C0 4.76889 0.224574 3.80014 0.673722 2.91946C1.12287 2.03878 1.77457 1.33423 2.62884 0.805824C3.4831 0.268608 4.5179 0 5.73324 0C6.975 0 8.01861 0.268608 8.86406 0.805824C9.71832 1.33423 10.3612 2.03878 10.7928 2.91946C11.2243 3.80014 11.4401 4.76889 11.4401 5.82571V7.25242C11.4401 8.30923 11.2199 9.27798 10.7795 10.1587C10.348 11.0305 9.70511 11.7307 8.85085 12.2591C7.99659 12.7875 6.95739 13.0517 5.73324 13.0517C4.49148 13.0517 3.44347 12.7875 2.5892 12.2591C1.74375 11.7307 1.10085 11.0261 0.660511 10.1455C0.22017 9.26477 0 8.30043 0 7.25242ZM3.47429 5.82571V7.25242C3.47429 7.95696 3.63722 8.59986 3.96307 9.18111C4.29773 9.75355 4.88778 10.0398 5.73324 10.0398C6.57869 10.0398 7.15994 9.75355 7.47699 9.18111C7.80284 8.59986 7.96577 7.95696 7.96577 7.25242V5.82571C7.96577 5.12117 7.81165 4.47827 7.50341 3.89702C7.19517 3.30696 6.60511 3.01193 5.73324 3.01193C4.89659 3.01193 4.31094 3.30696 3.97628 3.89702C3.64162 4.48708 3.47429 5.12997 3.47429 5.82571ZM1.94002 26L19.1375 0.998277H22.44L5.24257 26H1.94002Z" fill="#038D03"/>
</svg>
